# xmcd
#
# Track frame offsets:
#	150
#	18337
#	31453
#	45469
#	61420
#	79751
#	99255
#	111380
#	132859
#	152751
#	170801
#	183532
#	197422
#
# Disc length: 2892 seconds
#
# Revision: 0
# Processed by: cddbd v1.5.2PL0 Copyright (c) Steve Scherf et al.
# Submitted via: EasyCDDAExtractor 15.2.5.1
#
DISCID=a70b4a0d
DTITLE=Adrián Gil - Altamar
DYEAR=2011
DGENRE=Trova
TTITLE0=Itaca
TTITLE1=Niña deja el corazón
TTITLE2=Altamar
TTITLE3=Canción bufanda
TTITLE4=Que cosa la vida
TTITLE5=Muerto por nada
TTITLE6=Incomunicados
TTITLE7=Apellidos del silencio
TTITLE8=Sirena
TTITLE9=Hago a la tarde canción
TTITLE10=¿Sabes?
TTITLE11=Medusa
TTITLE12=Qué solo te ves
EXTD=
EXTT0=
EXTT1=
EXTT2=
EXTT3=
EXTT4=
EXTT5=
EXTT6=
EXTT7=
EXTT8=
EXTT9=
EXTT10=
EXTT11=
EXTT12=
PLAYORDER=
